<?xml version="1.0" standalone="no"?>
<!DOCTYPE svg PUBLIC "-//W3C//DTD SVG 20010904//EN"
 "http://www.w3.org/TR/2001/REC-SVG-20010904/DTD/svg10.dtd">
<svg version="1.0" xmlns="http://www.w3.org/2000/svg"
 width="700.000000pt" height="700.000000pt" viewBox="0 0 700.000000 700.000000"
 preserveAspectRatio="xMidYMid meet">
<metadata>
Created by potrace 1.14, written by Peter Selinger 2001-2017
</metadata>
<g transform="translate(0.000000,700.000000) scale(0.100000,-0.100000)"
fill="#000000" stroke="none">
<path d="M1904 6105 c-27 -16 -50 -40 -63 -67 l-21 -42 0 -2494 c0 -2149 2
-2498 15 -2528 17 -41 30 -55 76 -83 33 -20 47 -21 432 -21 429 0 438 1 486
53 13 15 29 46 35 70 8 31 11 748 10 2528 0 2243 -2 2487 -16 2514 -21 38 -55
71 -91 84 -18 7 -168 11 -425 11 l-397 0 -41 -25z"/>
<path d="M5374 5061 c-40 -19 -75 -58 -89 -100 -4 -13 -7 -909 -7 -1991 0
-1849 1 -1970 17 -2004 10 -21 34 -49 53 -64 l35 -27 422 0 422 0 35 27 c74
57 68 -128 68 2070 l0 1974 -22 44 c-17 32 -35 51 -65 66 -41 21 -54 22 -436
22 -356 0 -397 -1 -433 -17z"/>
<path d="M3101 4019 c-43 -9 -81 -37 -106 -80 -20 -34 -20 -52 -20 -1489 0
-1403 1 -1456 19 -1493 11 -23 35 -47 61 -62 l42 -25 398 0 c382 0 400 1 441
21 25 12 52 35 66 57 l22 37 2 1450 c1 1540 3 1487 -44 1538 -45 51 -51 51
-462 52 -212 1 -400 -2 -419 -6z"/>
<path d="M801 2968 c-54 -9 -86 -34 -111 -84 -20 -40 -20 -54 -18 -977 3 -927
3 -936 24 -963 11 -15 33 -37 48 -48 26 -20 42 -21 424 -24 218 -2 412 0 430
3 43 8 98 57 112 100 13 40 16 1843 3 1886 -12 37 -44 74 -83 94 -32 17 -68
19 -412 19 -207 1 -395 -2 -417 -6z"/>
<path d="M4300 1920 c-106 -8 -155 -48 -168 -137 -4 -27 -7 -217 -6 -424 1
-422 -1 -413 77 -464 l38 -26 419 3 c405 3 419 4 446 24 15 11 37 33 48 48 20
26 21 42 24 414 2 213 0 406 -3 430 -8 52 -52 106 -100 122 -36 12 -639 19
-775 10z"/>
</g>
</svg>
